<svg width="96" height="17" viewBox="0 0 96 17" fill="none" xmlns="http://www.w3.org/2000/svg">
<path d="M8.49106 0.681559C8.56875 0.457383 8.88579 0.457382 8.96349 0.681558L10.6284 5.48537C10.6633 5.58601 10.7581 5.6535 10.8646 5.6535H16.2163C16.4623 5.6535 16.5604 5.9716 16.357 6.11012L12.0558 9.03984C11.9625 9.10341 11.9233 9.22164 11.9603 9.32833L13.6097 14.0873C13.6885 14.3148 13.4317 14.5114 13.2327 14.3758L8.86801 11.4029C8.7831 11.345 8.67145 11.345 8.58654 11.4029L4.22183 14.3758C4.02282 14.5114 3.76602 14.3148 3.84488 14.0873L5.49425 9.32833C5.53123 9.22164 5.4921 9.10341 5.39877 9.03984L1.09753 6.11012C0.894156 5.9716 0.992198 5.6535 1.23827 5.6535H6.58993C6.69645 5.6535 6.79127 5.58601 6.82615 5.48537L8.49106 0.681559Z" fill="#FBB040"/>
<path d="M28.1274 0.681559C28.2051 0.457383 28.5221 0.457382 28.5998 0.681558L30.2648 5.48537C30.2996 5.58601 30.3945 5.6535 30.501 5.6535H35.8526C36.0987 5.6535 36.1967 5.9716 35.9934 6.11012L31.6921 9.03984C31.5988 9.10341 31.5597 9.22164 31.5967 9.32833L33.246 14.0873C33.3249 14.3148 33.0681 14.5114 32.8691 14.3758L28.5044 11.4029C28.4195 11.345 28.3078 11.345 28.2229 11.4029L23.8582 14.3758C23.6592 14.5114 23.4024 14.3148 23.4812 14.0873L25.1306 9.32833C25.1676 9.22164 25.1284 9.10341 25.0351 9.03984L20.7339 6.11012C20.5305 5.9716 20.6286 5.6535 20.8746 5.6535H26.2263C26.3328 5.6535 26.4276 5.58601 26.4625 5.48537L28.1274 0.681559Z" fill="#FBB040"/>
<path d="M47.7638 0.681559C47.8415 0.457383 48.1586 0.457382 48.2363 0.681558L49.9012 5.48537C49.936 5.58601 50.0309 5.6535 50.1374 5.6535H55.489C55.7351 5.6535 55.8332 5.9716 55.6298 6.11012L51.3285 9.03984C51.2352 9.10341 51.1961 9.22164 51.2331 9.32833L52.8824 14.0873C52.9613 14.3148 52.7045 14.5114 52.5055 14.3758L48.1408 11.4029C48.0559 11.345 47.9442 11.345 47.8593 11.4029L43.4946 14.3758C43.2956 14.5114 43.0388 14.3148 43.1176 14.0873L44.767 9.32833C44.804 9.22164 44.7649 9.10341 44.6715 9.03984L40.3703 6.11012C40.1669 5.9716 40.265 5.6535 40.511 5.6535H45.8627C45.9692 5.6535 46.064 5.58601 46.0989 5.48537L47.7638 0.681559Z" fill="#FBB040"/>
<path d="M67.4001 0.681559C67.4778 0.457383 67.7949 0.457382 67.8726 0.681558L69.5375 5.48537C69.5724 5.58601 69.6672 5.6535 69.7737 5.6535H75.1254C75.3714 5.6535 75.4695 5.9716 75.2661 6.11012L70.9649 9.03984C70.8715 9.10341 70.8324 9.22164 70.8694 9.32833L72.5188 14.0873C72.5976 14.3148 72.3408 14.5114 72.1418 14.3758L67.7771 11.4029C67.6922 11.345 67.5805 11.345 67.4956 11.4029L63.1309 14.3758C62.9319 14.5114 62.6751 14.3148 62.754 14.0873L64.4033 9.32833C64.4403 9.22164 64.4012 9.10341 64.3079 9.03984L60.0066 6.11012C59.8032 5.9716 59.9013 5.6535 60.1474 5.6535H65.499C65.6055 5.6535 65.7004 5.58601 65.7352 5.48537L67.4001 0.681559Z" fill="#FBB040"/>
<path d="M87.0365 0.681559C87.1142 0.457383 87.4312 0.457382 87.5089 0.681558L89.1738 5.48537C89.2087 5.58601 89.3035 5.6535 89.4101 5.6535H94.7617C95.0078 5.6535 95.1058 5.9716 94.9025 6.11012L90.6012 9.03984C90.5079 9.10341 90.4688 9.22164 90.5057 9.32833L92.1551 14.0873C92.234 14.3148 91.9772 14.5114 91.7782 14.3758L87.4135 11.4029C87.3285 11.345 87.2169 11.345 87.132 11.4029L82.7673 14.3758C82.5683 14.5114 82.3115 14.3148 82.3903 14.0873L84.0397 9.32833C84.0767 9.22164 84.0375 9.10341 83.9442 9.03984L79.643 6.11012C79.4396 5.9716 79.5376 5.6535 79.7837 5.6535H85.1354C85.2419 5.6535 85.3367 5.58601 85.3716 5.48537L87.0365 0.681559Z" fill="#FBB040"/>
</svg>
