<svg width="140" height="23" viewBox="0 0 140 23" fill="none" xmlns="http://www.w3.org/2000/svg">
<path d="M7.866 17.345C6.63933 17.345 5.5315 17.1303 4.5425 16.701C3.56117 16.264 2.75233 15.643 2.116 14.838C1.48733 14.0253 1.08867 13.0593 0.92 11.94L4.186 11.457C4.416 12.4077 4.89133 13.1398 5.612 13.6535C6.33267 14.1672 7.153 14.424 8.073 14.424C8.58667 14.424 9.085 14.3435 9.568 14.1825C10.051 14.0215 10.4458 13.7838 10.7525 13.4695C11.0668 13.1552 11.224 12.768 11.224 12.308C11.224 12.1393 11.1972 11.9783 11.1435 11.825C11.0975 11.664 11.017 11.5145 10.902 11.3765C10.787 11.2385 10.6222 11.1082 10.4075 10.9855C10.2005 10.8628 9.936 10.7517 9.614 10.652L5.313 9.387C4.991 9.295 4.61533 9.16467 4.186 8.996C3.76433 8.82733 3.35417 8.58583 2.9555 8.2715C2.55683 7.95717 2.22333 7.54317 1.955 7.0295C1.69433 6.50817 1.564 5.85267 1.564 5.063C1.564 3.95133 1.84383 3.0275 2.4035 2.2915C2.96317 1.5555 3.71067 1.00733 4.646 0.646999C5.58133 0.286666 6.61633 0.110332 7.751 0.117999C8.89333 0.133333 9.913 0.328833 10.81 0.704499C11.707 1.08017 12.4583 1.62833 13.064 2.349C13.6697 3.062 14.1067 3.936 14.375 4.971L10.994 5.546C10.8713 5.00933 10.6452 4.557 10.3155 4.189C9.98583 3.821 9.591 3.54117 9.131 3.3495C8.67867 3.15783 8.20333 3.05433 7.705 3.039C7.21433 3.02367 6.7505 3.09267 6.3135 3.246C5.88417 3.39167 5.5315 3.60633 5.2555 3.89C4.98717 4.17367 4.853 4.511 4.853 4.902C4.853 5.26233 4.96417 5.5575 5.1865 5.7875C5.40883 6.00983 5.68867 6.19 6.026 6.328C6.36333 6.466 6.70833 6.581 7.061 6.673L9.936 7.455C10.3653 7.57 10.8407 7.72333 11.362 7.915C11.8833 8.099 12.3817 8.35967 12.857 8.697C13.34 9.02667 13.7348 9.46367 14.0415 10.008C14.3558 10.5523 14.513 11.2423 14.513 12.078C14.513 12.9673 14.3252 13.7455 13.9495 14.4125C13.5815 15.0718 13.0832 15.62 12.4545 16.057C11.8258 16.4863 11.1128 16.8083 10.3155 17.023C9.52583 17.2377 8.70933 17.345 7.866 17.345ZM31.9907 17V9.663C31.9907 8.84267 31.7952 8.20633 31.4042 7.754C31.0208 7.294 30.488 7.064 29.8057 7.064C29.3687 7.064 28.9892 7.1675 28.6672 7.3745C28.3452 7.57383 28.0922 7.8575 27.9082 8.2255C27.7318 8.58583 27.6437 9.00367 27.6437 9.479L26.3327 8.605C26.3327 7.754 26.532 7.00267 26.9307 6.351C27.337 5.69933 27.8775 5.19333 28.5522 4.833C29.2345 4.465 29.9897 4.281 30.8177 4.281C32.236 4.281 33.3055 4.70267 34.0262 5.546C34.7545 6.38167 35.1187 7.478 35.1187 8.835V17H31.9907ZM17.0177 17V4.58H19.7777V8.697H20.1687V17H17.0177ZM24.5157 17V9.663C24.5157 8.84267 24.3202 8.20633 23.9292 7.754C23.5458 7.294 23.013 7.064 22.3307 7.064C21.679 7.064 21.1538 7.29017 20.7552 7.7425C20.3642 8.18717 20.1687 8.766 20.1687 9.479L18.8577 8.559C18.8577 7.74633 19.0608 7.018 19.4672 6.374C19.8735 5.73 20.4178 5.22017 21.1002 4.8445C21.7902 4.46883 22.5607 4.281 23.4117 4.281C24.3853 4.281 25.1827 4.488 25.8037 4.902C26.4323 5.316 26.8962 5.868 27.1952 6.558C27.4942 7.248 27.6437 8.007 27.6437 8.835V17H24.5157ZM41.559 17.345C40.6697 17.345 39.9145 17.1763 39.2935 16.839C38.6802 16.494 38.2125 16.0378 37.8905 15.4705C37.5762 14.8955 37.419 14.263 37.419 13.573C37.419 12.998 37.5072 12.4728 37.6835 11.9975C37.8599 11.5222 38.1435 11.1043 38.5345 10.744C38.9332 10.376 39.466 10.0693 40.133 9.824C40.593 9.65533 41.1412 9.50583 41.7775 9.3755C42.4139 9.24517 43.1345 9.1225 43.9395 9.0075C44.7445 8.88483 45.63 8.75067 46.596 8.605L45.469 9.226C45.469 8.49 45.2927 7.9495 44.94 7.6045C44.5874 7.2595 43.997 7.087 43.169 7.087C42.709 7.087 42.2299 7.19817 41.7315 7.4205C41.2332 7.64283 40.8844 8.03767 40.685 8.605L37.856 7.708C38.1704 6.68067 38.7607 5.845 39.627 5.201C40.4934 4.557 41.674 4.235 43.169 4.235C44.2654 4.235 45.239 4.40367 46.09 4.741C46.941 5.07833 47.585 5.661 48.022 6.489C48.2674 6.949 48.413 7.409 48.459 7.869C48.505 8.329 48.528 8.84267 48.528 9.41V17H45.791V14.447L46.182 14.976C45.5764 15.8117 44.9209 16.4173 44.2155 16.793C43.5179 17.161 42.6324 17.345 41.559 17.345ZM42.226 14.884C42.801 14.884 43.284 14.7843 43.675 14.585C44.0737 14.378 44.388 14.1442 44.618 13.8835C44.8557 13.6228 45.0167 13.4043 45.101 13.228C45.262 12.8907 45.354 12.4997 45.377 12.055C45.4077 11.6027 45.423 11.227 45.423 10.928L46.343 11.158C45.4154 11.3113 44.664 11.4417 44.089 11.549C43.514 11.6487 43.0502 11.7407 42.6975 11.825C42.3449 11.9093 42.0344 12.0013 41.766 12.101C41.4594 12.2237 41.2102 12.3578 41.0185 12.5035C40.8345 12.6415 40.6965 12.7948 40.6045 12.9635C40.5202 13.1322 40.478 13.32 40.478 13.527C40.478 13.8107 40.547 14.056 40.685 14.263C40.8307 14.4623 41.0339 14.6157 41.2945 14.723C41.5552 14.8303 41.8657 14.884 42.226 14.884ZM51.5182 17V4.58H54.2782V7.616L53.9792 7.225C54.1402 6.79567 54.3549 6.40467 54.6232 6.052C54.8915 5.69933 55.2212 5.408 55.6122 5.178C55.9112 4.994 56.237 4.85217 56.5897 4.7525C56.9424 4.64517 57.3065 4.58 57.6822 4.557C58.0579 4.52633 58.4335 4.534 58.8092 4.58V7.501C58.4642 7.39367 58.0617 7.35917 57.6017 7.3975C57.1494 7.42817 56.7392 7.53167 56.3712 7.708C56.0032 7.87667 55.6927 8.10283 55.4397 8.3865C55.1867 8.6625 54.995 8.99217 54.8647 9.3755C54.7344 9.75117 54.6692 10.1767 54.6692 10.652V17H51.5182ZM68.4487 17C67.5901 17.161 66.7467 17.23 65.9187 17.207C65.0984 17.1917 64.3624 17.0498 63.7107 16.7815C63.0667 16.5055 62.5761 16.0647 62.2387 15.459C61.9321 14.8917 61.7711 14.3167 61.7557 13.734C61.7404 13.1437 61.7327 12.4767 61.7327 11.733V1.13H64.8607V11.549C64.8607 12.032 64.8646 12.469 64.8722 12.86C64.8876 13.2433 64.9681 13.55 65.1137 13.78C65.3897 14.217 65.8306 14.4547 66.4362 14.493C67.0419 14.5313 67.7127 14.5007 68.4487 14.401V17ZM59.6167 6.995V4.58H68.4487V6.995H59.6167ZM77.4724 17.345C76.2458 17.345 75.1379 17.1303 74.1489 16.701C73.1676 16.264 72.3588 15.643 71.7224 14.838C71.0938 14.0253 70.6951 13.0593 70.5264 11.94L73.7924 11.457C74.0224 12.4077 74.4978 13.1398 75.2184 13.6535C75.9391 14.1672 76.7594 14.424 77.6794 14.424C78.1931 14.424 78.6914 14.3435 79.1744 14.1825C79.6574 14.0215 80.0523 13.7838 80.3589 13.4695C80.6733 13.1552 80.8304 12.768 80.8304 12.308C80.8304 12.1393 80.8036 11.9783 80.7499 11.825C80.7039 11.664 80.6234 11.5145 80.5084 11.3765C80.3934 11.2385 80.2286 11.1082 80.0139 10.9855C79.8069 10.8628 79.5424 10.7517 79.2204 10.652L74.9194 9.387C74.5974 9.295 74.2218 9.16467 73.7924 8.996C73.3708 8.82733 72.9606 8.58583 72.5619 8.2715C72.1633 7.95717 71.8298 7.54317 71.5614 7.0295C71.3008 6.50817 71.1704 5.85267 71.1704 5.063C71.1704 3.95133 71.4503 3.0275 72.0099 2.2915C72.5696 1.5555 73.3171 1.00733 74.2524 0.646999C75.1878 0.286666 76.2228 0.110332 77.3574 0.117999C78.4998 0.133333 79.5194 0.328833 80.4164 0.704499C81.3134 1.08017 82.0648 1.62833 82.6704 2.349C83.2761 3.062 83.7131 3.936 83.9814 4.971L80.6004 5.546C80.4778 5.00933 80.2516 4.557 79.9219 4.189C79.5923 3.821 79.1974 3.54117 78.7374 3.3495C78.2851 3.15783 77.8098 3.05433 77.3114 3.039C76.8208 3.02367 76.3569 3.09267 75.9199 3.246C75.4906 3.39167 75.1379 3.60633 74.8619 3.89C74.5936 4.17367 74.4594 4.511 74.4594 4.902C74.4594 5.26233 74.5706 5.5575 74.7929 5.7875C75.0153 6.00983 75.2951 6.19 75.6324 6.328C75.9698 6.466 76.3148 6.581 76.6674 6.673L79.5424 7.455C79.9718 7.57 80.4471 7.72333 80.9684 7.915C81.4898 8.099 81.9881 8.35967 82.4634 8.697C82.9464 9.02667 83.3413 9.46367 83.6479 10.008C83.9623 10.5523 84.1194 11.2423 84.1194 12.078C84.1194 12.9673 83.9316 13.7455 83.5559 14.4125C83.1879 15.0718 82.6896 15.62 82.0609 16.057C81.4323 16.4863 80.7193 16.8083 79.9219 17.023C79.1323 17.2377 78.3158 17.345 77.4724 17.345ZM92.7421 17.345C91.5078 17.345 90.4766 17.0575 89.6486 16.4825C88.8206 15.9075 88.1958 15.1255 87.7741 14.1365C87.3601 13.1475 87.1531 12.032 87.1531 10.79C87.1531 9.548 87.3601 8.4325 87.7741 7.4435C88.1881 6.4545 88.7976 5.6725 89.6026 5.0975C90.4076 4.5225 91.4004 4.235 92.5811 4.235C93.7694 4.235 94.8044 4.51867 95.6861 5.086C96.5678 5.65333 97.2501 6.4315 97.7331 7.4205C98.2238 8.40183 98.4691 9.525 98.4691 10.79C98.4691 12.032 98.2276 13.1475 97.7446 14.1365C97.2693 15.1255 96.6023 15.9075 95.7436 16.4825C94.8849 17.0575 93.8844 17.345 92.7421 17.345ZM86.6241 22.52V4.58H89.3841V13.09H89.7751V22.52H86.6241ZM92.2361 14.562C92.9108 14.562 93.4628 14.3933 93.8921 14.056C94.3214 13.7187 94.6396 13.2663 94.8466 12.699C95.0536 12.124 95.1571 11.4877 95.1571 10.79C95.1571 10.1 95.0498 9.47133 94.8351 8.904C94.6204 8.329 94.2869 7.87283 93.8346 7.5355C93.3899 7.1905 92.8188 7.018 92.1211 7.018C91.4694 7.018 90.9404 7.17517 90.5341 7.4895C90.1354 7.80383 89.8441 8.24467 89.6601 8.812C89.4761 9.37933 89.3841 10.0387 89.3841 10.79C89.3841 11.5413 89.4761 12.2007 89.6601 12.768C89.8441 13.3353 90.1431 13.7762 90.5571 14.0905C90.9788 14.4048 91.5384 14.562 92.2361 14.562ZM104.45 17.345C103.56 17.345 102.805 17.1763 102.184 16.839C101.571 16.494 101.103 16.0378 100.781 15.4705C100.467 14.8955 100.31 14.263 100.31 13.573C100.31 12.998 100.398 12.4728 100.574 11.9975C100.75 11.5222 101.034 11.1043 101.425 10.744C101.824 10.376 102.357 10.0693 103.024 9.824C103.484 9.65533 104.032 9.50583 104.668 9.3755C105.304 9.24517 106.025 9.1225 106.83 9.0075C107.635 8.88483 108.521 8.75067 109.487 8.605L108.36 9.226C108.36 8.49 108.183 7.9495 107.831 7.6045C107.478 7.2595 106.888 7.087 106.06 7.087C105.6 7.087 105.12 7.19817 104.622 7.4205C104.124 7.64283 103.775 8.03767 103.576 8.605L100.747 7.708C101.061 6.68067 101.651 5.845 102.518 5.201C103.384 4.557 104.565 4.235 106.06 4.235C107.156 4.235 108.13 4.40367 108.981 4.741C109.832 5.07833 110.476 5.661 110.913 6.489C111.158 6.949 111.304 7.409 111.35 7.869C111.396 8.329 111.419 8.84267 111.419 9.41V17H108.682V14.447L109.073 14.976C108.467 15.8117 107.811 16.4173 107.106 16.793C106.408 17.161 105.523 17.345 104.45 17.345ZM105.117 14.884C105.692 14.884 106.175 14.7843 106.566 14.585C106.964 14.378 107.279 14.1442 107.509 13.8835C107.746 13.6228 107.907 13.4043 107.992 13.228C108.153 12.8907 108.245 12.4997 108.268 12.055C108.298 11.6027 108.314 11.227 108.314 10.928L109.234 11.158C108.306 11.3113 107.555 11.4417 106.98 11.549C106.405 11.6487 105.941 11.7407 105.588 11.825C105.235 11.9093 104.925 12.0013 104.657 12.101C104.35 12.2237 104.101 12.3578 103.909 12.5035C103.725 12.6415 103.587 12.7948 103.495 12.9635C103.411 13.1322 103.369 13.32 103.369 13.527C103.369 13.8107 103.438 14.056 103.576 14.263C103.721 14.4623 103.924 14.6157 104.185 14.723C104.446 14.8303 104.756 14.884 105.117 14.884ZM119.883 17.345C118.595 17.345 117.491 17.0575 116.571 16.4825C115.651 15.9075 114.945 15.1255 114.455 14.1365C113.964 13.1475 113.719 12.032 113.719 10.79C113.719 9.53267 113.972 8.4095 114.478 7.4205C114.991 6.4315 115.712 5.65333 116.64 5.086C117.567 4.51867 118.664 4.235 119.929 4.235C121.393 4.235 122.62 4.60683 123.609 5.3505C124.605 6.0865 125.242 7.09467 125.518 8.375L122.39 9.203C122.206 8.559 121.884 8.05683 121.424 7.6965C120.971 7.33617 120.458 7.156 119.883 7.156C119.223 7.156 118.683 7.317 118.261 7.639C117.84 7.95333 117.529 8.3865 117.33 8.9385C117.13 9.48283 117.031 10.1 117.031 10.79C117.031 11.871 117.268 12.7488 117.744 13.4235C118.227 14.0905 118.94 14.424 119.883 14.424C120.588 14.424 121.125 14.263 121.493 13.941C121.861 13.619 122.137 13.159 122.321 12.561L125.518 13.228C125.165 14.5467 124.498 15.5625 123.517 16.2755C122.535 16.9885 121.324 17.345 119.883 17.345ZM133.254 17.345C131.981 17.345 130.858 17.0728 129.885 16.5285C128.919 15.9765 128.16 15.2213 127.608 14.263C127.063 13.297 126.791 12.193 126.791 10.951C126.791 9.594 127.059 8.41333 127.596 7.409C128.133 6.40467 128.873 5.6265 129.816 5.0745C130.759 4.51483 131.843 4.235 133.07 4.235C134.373 4.235 135.481 4.54167 136.394 5.155C137.306 5.76833 137.981 6.63083 138.418 7.7425C138.855 8.85417 139.008 10.1613 138.878 11.664H135.784V10.514C135.784 9.249 135.581 8.3405 135.175 7.7885C134.776 7.22883 134.12 6.949 133.208 6.949C132.142 6.949 131.357 7.27483 130.851 7.9265C130.352 8.5705 130.103 9.525 130.103 10.79C130.103 11.9477 130.352 12.8447 130.851 13.481C131.357 14.1097 132.096 14.424 133.07 14.424C133.683 14.424 134.209 14.2898 134.646 14.0215C135.083 13.7532 135.416 13.366 135.646 12.86L138.774 13.757C138.306 14.8917 137.567 15.7733 136.555 16.402C135.55 17.0307 134.45 17.345 133.254 17.345ZM129.137 11.664V9.341H137.371V11.664H129.137Z" fill="#31353B"/>
</svg>
